<svg width="34" height="38" viewBox="0 0 34 38" fill="none" xmlns="http://www.w3.org/2000/svg">
<path d="M1.78655 12.7051H0C0.893273 13.8217 1.54834 14.8181 1.78655 17.0856C2.02475 19.3532 1.15795 21.4088 0.694768 21.8955H2.18356C4.26786 19.147 3.27533 14.5089 1.78655 12.7051Z" fill="white"/>
<path d="M4.33496 23.2828H3.01855C3.67676 24.0201 4.15944 24.6781 4.33496 26.1755C4.51048 27.673 3.87178 29.0305 3.53049 29.3519H4.62749C6.16329 27.5368 5.43196 24.4739 4.33496 23.2828Z" fill="white"/>
<path d="M7.01324 8.2833C5.45079 8.8382 3.19589 10.3642 2.21936 11.7514C2.69283 11.6069 3.71079 12.0982 4.34997 15.5663C4.98916 19.0344 4.08365 21.5198 3.55099 22.3291C4.34997 22.04 6.01895 22.3811 6.30303 26.0572C6.58712 29.7334 5.00099 30.3056 4.17242 30.1322C9.35691 37.6927 19.9745 38.9759 27.5204 37.4152V36.8083C15.5357 36.8083 12.3102 34.0627 10.9194 32.5599C14.5592 34.6408 21.2173 36.4615 26.1 35.5078C30.0061 34.7448 31.2785 31.953 31.4265 30.6525H30.9826C26.1 33.9471 21.0753 34.2939 15.5357 32.5599C9.99609 30.8259 7.36834 25.9705 7.36834 24.1498V17.1269C7.36834 16.0287 7.70569 13.4334 10.4755 12.1849C13.9377 10.6243 31.1602 10.3642 31.6928 10.5376C32.119 10.6763 32.2847 11.2312 32.3143 11.4913H32.7581C32.9712 8.64746 31.6632 7.9365 30.9826 7.9365H21.2173C18.0214 7.9365 12.4877 9.32374 10.1204 10.0174C14.6657 7.0348 23.8806 5.97125 27.8755 5.94235C27.1653 3.30661 22.9041 1.37604 20.8622 0.740222C12.7659 -1.27127 8.25609 1.28933 7.01324 2.82107C10.0671 1.78065 13.1387 1.98295 14.2928 2.21416C10.5287 2.69969 7.8714 6.46256 7.01324 8.2833Z" fill="white"/>
<mask id="mask0_276_106" style="mask-type:alpha" maskUnits="userSpaceOnUse" x="5" y="6" width="29" height="29">
<path d="M15.0438 8.46699C15.399 8.26469 16.2867 7.84274 16.9969 7.77338C14.3041 8.9583 9.23793 13.2529 10.5163 20.9521C10.7826 21.8191 11.3863 23.0329 11.6704 20.9521C12.0255 18.351 13.002 15.8367 13.5347 14.8829C14.6199 16.6589 17.5481 19.2753 20.6425 15.6746C20.5357 15.7542 20.3183 15.8367 19.9265 15.8367C19.2163 15.8367 17.7959 15.0564 18.0622 14.276C18.3285 13.4957 19.5714 13.6691 20.7255 14.276C21.6487 14.7616 23.0632 13.4379 23.6551 12.7154C24.0989 13.4957 25.1287 14.9003 25.6969 14.276C26.4071 13.4957 27.7387 13.6691 27.7387 14.276C27.7387 14.8829 27.3836 15.8367 26.2295 15.8367C25.3063 15.8367 24.1285 14.1604 23.6551 13.3223C22.5602 14.565 20.2816 17.3973 19.9265 18.7845C19.4826 20.5186 19.4826 23.3798 22.8561 24.4202C25.5549 25.2525 27.2357 23.9578 27.7387 23.2064H24.454C24.1877 23.1775 24.0515 23.0455 23.6551 22.8595C23.2587 22.6736 23.1112 22.69 22.8561 22.5994C22.6009 22.5089 22.535 22.2526 22.8561 22.2526H27.7387C28.1826 22.1081 29.0526 21.4723 28.9816 20.0851C28.9157 18.7981 28.6919 18.2076 28.5654 18.0367C28.5561 18.0257 28.5469 18.0149 28.5377 18.0042C28.5463 18.0126 28.5555 18.0234 28.5654 18.0367C29.6608 19.3325 31.3086 22.6794 29.3367 25.9808C27.3481 29.3102 25.7265 31.2407 25.1642 31.7899C27.3836 30.8939 32.1065 27.8536 33.2428 22.8595C33.9978 19.5413 33.2112 16.0976 32.0286 13.313C31.5708 12.4788 31.226 11.762 30.966 11.144C30.1759 9.72957 29.3587 8.63253 28.7632 8.02319C28.1207 7.36579 27.5357 7.10096 26.8924 7.03265C26.5888 7.27566 26.3627 7.55327 26.2295 7.77338C25.7283 7.52859 23.6237 7.44578 22.2816 7.42968C22.1226 7.43137 21.9591 7.43048 21.7908 7.42657C21.9371 7.42657 22.1025 7.42753 22.2816 7.42968C24.4309 7.40677 25.7532 6.9117 26.8924 7.03265C27.4656 6.57368 28.3151 6.2381 29.3367 6.64625C30.9305 7.28303 29.391 7.40016 30.966 11.144C31.3345 11.8037 31.6971 12.5325 32.0286 13.313C32.1959 13.618 32.3784 13.9387 32.5774 14.276C34.6223 17.4737 36.5754 32.2131 22.3234 34.651C15.399 35.0845 11.9367 31.3563 9.1847 25.7207C6.29798 19.8093 8.56322 15.5766 10.5163 11.9351C9.8061 10.779 8.9006 8.20688 10.9602 7.16645C13.5347 5.86592 14.4224 7.68668 15.0438 8.46699Z" fill="black"/>
<path fill-rule="evenodd" clip-rule="evenodd" d="M25.9496 18.0909C25.3874 18.062 24.2096 18.0909 23.9965 18.4377C23.7302 18.8712 24.1741 20.5186 25.3282 20.9521C25.4075 20.9779 25.6147 21.0269 25.8607 21.0369V21.0475C26.1448 21.0475 26.3934 20.9897 26.4822 20.9608C27.6362 20.5273 28.0801 18.88 27.8138 18.4465C27.6114 18.117 26.5385 18.0744 25.9496 18.0958V18.0909Z" fill="black"/>
<path d="M9.23261 11.1445C9.58772 11.1445 13.6418 9.29483 13.9377 9.84395L10.5642 14.0057L9.49896 19.728C9.97243 21.3464 11.0259 24.7047 11.452 25.1902C11.9847 25.7971 15.1806 32.2131 15.0031 32.5599C14.8255 32.9067 13.2275 31.7796 11.452 31.5195C9.67651 31.2594 8.96632 29.3519 8.43366 28.9184C7.90101 28.4849 7.01324 25.9705 6.03673 22.4158C5.23919 19.5125 6.12544 19.1211 6.03666 15.9131C5.94789 12.7051 5.50404 13.0519 6.0367 12.2716C6.56935 11.4913 8.78874 11.1445 9.23261 11.1445Z" fill="black"/>
</mask>
<g mask="url(#mask0_276_106)">
<path d="M21.8387 9.84393L31.4265 12.5317C33.1132 15.2195 38.6173 18.2887 39.3275 19.8147C40.2152 21.7221 38.0846 31.6062 36.2203 34.0338C34.356 36.4615 28.9407 37.2418 24.5019 36.895C20.0632 36.5482 14.204 34.9875 13.5826 34.554C12.9611 34.1205 8.78867 26.8375 6.48051 23.3695C4.17235 19.9014 7.01316 15.3062 7.36827 14.6125C7.65235 14.0577 9.20296 12.8785 9.94276 12.3583L21.8387 9.84393Z" fill="white"/>
</g>
<path d="M9.23261 11.1445C9.58772 11.1445 13.6418 9.29484 13.9377 9.84395L10.5642 14.0057L9.49896 19.728C9.97243 21.3464 11.0259 24.7047 11.452 25.1902C11.9847 25.7971 15.1806 32.2131 15.0031 32.5599C14.8255 32.9067 13.2275 31.7796 11.452 31.5195C9.67651 31.2594 8.96632 29.3519 8.43366 28.9184C7.90101 28.4849 7.01324 25.9706 6.03673 22.4158C5.23919 19.5125 6.12544 19.1211 6.03666 15.9131C5.94789 12.7051 5.50404 13.0519 6.0367 12.2716C6.56935 11.4913 8.78874 11.1445 9.23261 11.1445Z" fill="white"/>
</svg>
