{
	"asset":{
		"generator":"Khronos glTF Blender I/O v3.6.27",
		"version":"2.0"
	},
	"extensionsUsed":[
		"KHR_materials_specular",
		"KHR_materials_ior"
	],
	"scene":0,
	"scenes":[
		{
			"name":"Scene",
			"nodes":[
				0
			]
		}
	],
	"nodes":[
		{
			"mesh":0,
			"name":"Cylinder.002",
			"translation":[
				0,
				7,
				0
			]
		}
	],
	"materials":[
		{
			"doubleSided":true,
			"name":"Material.001",
			"pbrMetallicRoughness":{
				"baseColorFactor":[
					0.07541365176439285,
					0.07541365176439285,
					0.07541365176439285,
					1
				],
				"roughnessFactor":0
			}
		},
		{
			"doubleSided":true,
			"extensions":{
				"KHR_materials_specular":{
					"specularColorFactor":[
						2.371357614441398,
						2.371357614441398,
						2.371357614441398
					]
				},
				"KHR_materials_ior":{
					"ior":1.4500000476837158
				}
			},
			"name":"Material.002",
			"pbrMetallicRoughness":{
				"baseColorFactor":[
					0,
					0,
					0,
					1
				],
				"metallicFactor":0,
				"roughnessFactor":0
			}
		}
	],
	"meshes":[
		{
			"name":"Cylinder.002",
			"primitives":[
				{
					"attributes":{
						"POSITION":0,
						"NORMAL":1,
						"TEXCOORD_0":2
					},
					"indices":3,
					"material":0
				},
				{
					"attributes":{
						"POSITION":4,
						"NORMAL":5,
						"TEXCOORD_0":6
					},
					"indices":7,
					"material":1
				}
			]
		}
	],
	"accessors":[
		{
			"bufferView":0,
			"componentType":5126,
			"count":13730,
			"max":[
				2.7830605506896973,
				0.8559041023254395,
				2.1746673583984375
			],
			"min":[
				-2.7716684341430664,
				-8.221671104431152,
				-3.1886181831359863
			],
			"type":"VEC3"
		},
		{
			"bufferView":1,
			"componentType":5126,
			"count":13730,
			"type":"VEC3"
		},
		{
			"bufferView":2,
			"componentType":5126,
			"count":13730,
			"type":"VEC2"
		},
		{
			"bufferView":3,
			"componentType":5123,
			"count":81024,
			"type":"SCALAR"
		},
		{
			"bufferView":4,
			"componentType":5126,
			"count":48,
			"max":[
				0.8768202662467957,
				-2.457946300506592,
				2.0409626960754395
			],
			"min":[
				-0.8768203854560852,
				-4.215421676635742,
				2.0367491245269775
			],
			"type":"VEC3"
		},
		{
			"bufferView":5,
			"componentType":5126,
			"count":48,
			"type":"VEC3"
		},
		{
			"bufferView":6,
			"componentType":5126,
			"count":48,
			"type":"VEC2"
		},
		{
			"bufferView":7,
			"componentType":5123,
			"count":138,
			"type":"SCALAR"
		}
	],
	"bufferViews":[
		{
			"buffer":0,
			"byteLength":164760,
			"byteOffset":0,
			"target":34962
		},
		{
			"buffer":0,
			"byteLength":164760,
			"byteOffset":164760,
			"target":34962
		},
		{
			"buffer":0,
			"byteLength":109840,
			"byteOffset":329520,
			"target":34962
		},
		{
			"buffer":0,
			"byteLength":162048,
			"byteOffset":439360,
			"target":34963
		},
		{
			"buffer":0,
			"byteLength":576,
			"byteOffset":601408,
			"target":34962
		},
		{
			"buffer":0,
			"byteLength":576,
			"byteOffset":601984,
			"target":34962
		},
		{
			"buffer":0,
			"byteLength":384,
			"byteOffset":602560,
			"target":34962
		},
		{
			"buffer":0,
			"byteLength":276,
			"byteOffset":602944,
			"target":34963
		}
	],
	"buffers":[
		{
			"byteLength":603220,
			"uri":"data:application/octet-stream;base64,"
		}
	]
}
